<svg xmlns="http://www.w3.org/2000/svg" xmlns:xlink="http://www.w3.org/1999/xlink" width="500" zoomAndPan="magnify" viewBox="0 0 375 60" height="80" preserveAspectRatio="xMidYMid meet" version="1.0"><defs><g/><clipPath id="25acae88cb"><path d="M 3.605469 13.339844 L 23.601562 13.339844 L 23.601562 46.660156 L 3.605469 46.660156 Z M 3.605469 13.339844 " clip-rule="nonzero"/></clipPath><clipPath id="1e641d88da"><path d="M 11.128906 13.339844 L 31.039062 13.339844 L 31.039062 46.660156 L 11.128906 46.660156 Z M 11.128906 13.339844 " clip-rule="nonzero"/></clipPath></defs><g clip-path="url(#25acae88cb)"><path fill="#fd6dcf" d="M 20.109375 46.625 L 3.609375 30.054688 L 20.226562 13.371094 L 23.605469 16.761719 L 10.367188 30.054688 L 23.488281 43.234375 L 20.109375 46.625 " fill-opacity="1" fill-rule="nonzero"/></g><g clip-path="url(#1e641d88da)"><path fill="#fd6dcf" d="M 14.617188 46.625 L 31.121094 30.054688 L 14.503906 13.371094 L 11.125 16.761719 L 24.363281 30.054688 L 11.238281 43.234375 L 14.617188 46.625 " fill-opacity="1" fill-rule="nonzero"/></g><g fill="#5e7aff" fill-opacity="1"><g transform="translate(38.602903, 41.25)"><g><path d="M 12.296875 -3.765625 C 13.054688 -3.765625 13.769531 -3.910156 14.4375 -4.203125 C 15.113281 -4.503906 15.785156 -4.890625 16.453125 -5.359375 L 18.921875 -1.859375 C 18.097656 -1.160156 17.097656 -0.578125 15.921875 -0.109375 C 14.753906 0.359375 13.445312 0.59375 12 0.59375 C 10.007812 0.59375 8.296875 0.179688 6.859375 -0.640625 C 5.421875 -1.460938 4.316406 -2.601562 3.546875 -4.0625 C 2.773438 -5.53125 2.390625 -7.234375 2.390625 -9.171875 C 2.390625 -11.109375 2.785156 -12.832031 3.578125 -14.34375 C 4.367188 -15.851562 5.488281 -17.039062 6.9375 -17.90625 C 8.394531 -18.769531 10.117188 -19.203125 12.109375 -19.203125 C 13.523438 -19.203125 14.78125 -19.003906 15.875 -18.609375 C 16.976562 -18.222656 17.992188 -17.644531 18.921875 -16.875 L 16.515625 -13.546875 C 15.890625 -13.984375 15.222656 -14.320312 14.515625 -14.5625 C 13.816406 -14.8125 13.09375 -14.9375 12.34375 -14.9375 C 11.09375 -14.9375 10.082031 -14.492188 9.3125 -13.609375 C 8.550781 -12.734375 8.171875 -11.253906 8.171875 -9.171875 C 8.171875 -7.804688 8.347656 -6.726562 8.703125 -5.9375 C 9.066406 -5.15625 9.5625 -4.597656 10.1875 -4.265625 C 10.8125 -3.929688 11.515625 -3.765625 12.296875 -3.765625 Z M 12.296875 -3.765625 "/></g></g></g><g fill="#5e7aff" fill-opacity="1"><g transform="translate(57.848163, 41.25)"><g><path d="M 10.5 -19.203125 C 12.414062 -19.203125 14.039062 -18.789062 15.375 -17.96875 C 16.71875 -17.15625 17.742188 -16.007812 18.453125 -14.53125 C 19.171875 -13.050781 19.53125 -11.320312 19.53125 -9.34375 C 19.53125 -7.28125 19.171875 -5.503906 18.453125 -4.015625 C 17.734375 -2.523438 16.703125 -1.382812 15.359375 -0.59375 C 14.023438 0.195312 12.40625 0.59375 10.5 0.59375 C 8.613281 0.59375 6.992188 0.203125 5.640625 -0.578125 C 4.296875 -1.359375 3.265625 -2.488281 2.546875 -3.96875 C 1.828125 -5.445312 1.46875 -7.226562 1.46875 -9.3125 C 1.46875 -11.28125 1.828125 -13.003906 2.546875 -14.484375 C 3.265625 -15.972656 4.296875 -17.128906 5.640625 -17.953125 C 6.992188 -18.785156 8.613281 -19.203125 10.5 -19.203125 Z M 10.5 -15.125 C 9.363281 -15.125 8.523438 -14.660156 7.984375 -13.734375 C 7.441406 -12.804688 7.171875 -11.332031 7.171875 -9.3125 C 7.171875 -7.257812 7.441406 -5.769531 7.984375 -4.84375 C 8.523438 -3.925781 9.363281 -3.46875 10.5 -3.46875 C 11.632812 -3.46875 12.472656 -3.925781 13.015625 -4.84375 C 13.554688 -5.769531 13.828125 -7.269531 13.828125 -9.34375 C 13.828125 -11.351562 13.554688 -12.816406 13.015625 -13.734375 C 12.472656 -14.660156 11.632812 -15.125 10.5 -15.125 Z M 10.5 -15.125 "/></g></g></g><g fill="#5e7aff" fill-opacity="1"><g transform="translate(77.093422, 41.25)"><g><path d="M 13.015625 -26.546875 L 18.546875 -25.96875 L 18.546875 0 L 13.65625 0 L 13.375 -2.046875 C 12.851562 -1.328125 12.164062 -0.707031 11.3125 -0.1875 C 10.46875 0.332031 9.4375 0.59375 8.21875 0.59375 C 6.6875 0.59375 5.414062 0.179688 4.40625 -0.640625 C 3.394531 -1.472656 2.640625 -2.632812 2.140625 -4.125 C 1.648438 -5.613281 1.40625 -7.351562 1.40625 -9.34375 C 1.40625 -11.257812 1.703125 -12.957031 2.296875 -14.4375 C 2.890625 -15.914062 3.738281 -17.078125 4.84375 -17.921875 C 5.957031 -18.773438 7.273438 -19.203125 8.796875 -19.203125 C 9.628906 -19.203125 10.398438 -19.054688 11.109375 -18.765625 C 11.828125 -18.472656 12.460938 -18.046875 13.015625 -17.484375 Z M 10.296875 -15.15625 C 9.335938 -15.15625 8.566406 -14.703125 7.984375 -13.796875 C 7.398438 -12.890625 7.109375 -11.394531 7.109375 -9.3125 C 7.109375 -7.78125 7.226562 -6.59375 7.46875 -5.75 C 7.71875 -4.90625 8.054688 -4.3125 8.484375 -3.96875 C 8.921875 -3.632812 9.414062 -3.46875 9.96875 -3.46875 C 10.59375 -3.46875 11.15625 -3.660156 11.65625 -4.046875 C 12.164062 -4.429688 12.617188 -4.957031 13.015625 -5.625 L 13.015625 -13.625 C 12.628906 -14.101562 12.21875 -14.476562 11.78125 -14.75 C 11.351562 -15.019531 10.859375 -15.15625 10.296875 -15.15625 Z M 10.296875 -15.15625 "/></g></g></g><g fill="#5e7aff" fill-opacity="1"><g transform="translate(96.338681, 41.25)"><g><path d="M 13.8125 -18.578125 L 13.8125 -3.78125 L 18.53125 -3.78125 L 18.53125 0 L 3.015625 0 L 3.015625 -3.78125 L 8.28125 -3.78125 L 8.28125 -14.8125 L 3.1875 -14.8125 L 3.1875 -18.578125 Z M 10.46875 -28.3125 C 11.425781 -28.3125 12.207031 -28.015625 12.8125 -27.421875 C 13.414062 -26.828125 13.71875 -26.085938 13.71875 -25.203125 C 13.71875 -24.316406 13.414062 -23.570312 12.8125 -22.96875 C 12.207031 -22.363281 11.425781 -22.0625 10.46875 -22.0625 C 9.5 -22.0625 8.707031 -22.363281 8.09375 -22.96875 C 7.476562 -23.570312 7.171875 -24.316406 7.171875 -25.203125 C 7.171875 -26.085938 7.476562 -26.828125 8.09375 -27.421875 C 8.707031 -28.015625 9.5 -28.3125 10.46875 -28.3125 Z M 10.46875 -28.3125 "/></g></g></g><g fill="#5e7aff" fill-opacity="1"><g transform="translate(115.583941, 41.25)"><g><path d="M 2.453125 0 L 2.453125 -18.578125 L 7.28125 -18.578125 L 7.671875 -16.4375 C 8.492188 -17.363281 9.363281 -18.054688 10.28125 -18.515625 C 11.207031 -18.972656 12.257812 -19.203125 13.4375 -19.203125 C 15.019531 -19.203125 16.265625 -18.71875 17.171875 -17.75 C 18.085938 -16.78125 18.546875 -15.414062 18.546875 -13.65625 L 18.546875 0 L 13.015625 0 L 13.015625 -12.0625 C 13.015625 -12.8125 12.960938 -13.410156 12.859375 -13.859375 C 12.753906 -14.316406 12.570312 -14.640625 12.3125 -14.828125 C 12.050781 -15.023438 11.691406 -15.125 11.234375 -15.125 C 10.847656 -15.125 10.472656 -15.035156 10.109375 -14.859375 C 9.742188 -14.691406 9.382812 -14.453125 9.03125 -14.140625 C 8.675781 -13.828125 8.328125 -13.445312 7.984375 -13 L 7.984375 0 Z M 2.453125 0 "/></g></g></g><g fill="#5e7aff" fill-opacity="1"><g transform="translate(134.829194, 41.25)"><g><path d="M 18.953125 -21.5625 L 20.25 -17.5 C 19.59375 -17.238281 18.828125 -17.050781 17.953125 -16.9375 C 17.078125 -16.820312 16.054688 -16.765625 14.890625 -16.765625 C 16.054688 -16.265625 16.945312 -15.644531 17.5625 -14.90625 C 18.175781 -14.164062 18.484375 -13.191406 18.484375 -11.984375 C 18.484375 -10.785156 18.160156 -9.71875 17.515625 -8.78125 C 16.878906 -7.84375 15.96875 -7.101562 14.78125 -6.5625 C 13.601562 -6.019531 12.210938 -5.75 10.609375 -5.75 C 10.210938 -5.75 9.835938 -5.765625 9.484375 -5.796875 C 9.128906 -5.835938 8.785156 -5.894531 8.453125 -5.96875 C 8.253906 -5.863281 8.101562 -5.710938 8 -5.515625 C 7.894531 -5.316406 7.84375 -5.113281 7.84375 -4.90625 C 7.84375 -4.613281 7.960938 -4.347656 8.203125 -4.109375 C 8.441406 -3.878906 9.003906 -3.765625 9.890625 -3.765625 L 12.9375 -3.765625 C 14.382812 -3.765625 15.632812 -3.53125 16.6875 -3.0625 C 17.738281 -2.59375 18.554688 -1.957031 19.140625 -1.15625 C 19.722656 -0.351562 20.015625 0.566406 20.015625 1.609375 C 20.015625 3.515625 19.179688 5.015625 17.515625 6.109375 C 15.847656 7.203125 13.367188 7.75 10.078125 7.75 C 7.703125 7.75 5.863281 7.503906 4.5625 7.015625 C 3.257812 6.535156 2.351562 5.847656 1.84375 4.953125 C 1.332031 4.066406 1.078125 3.007812 1.078125 1.78125 L 5.984375 1.78125 C 5.984375 2.320312 6.085938 2.765625 6.296875 3.109375 C 6.515625 3.453125 6.929688 3.703125 7.546875 3.859375 C 8.160156 4.023438 9.050781 4.109375 10.21875 4.109375 C 11.394531 4.109375 12.289062 4.015625 12.90625 3.828125 C 13.53125 3.640625 13.957031 3.382812 14.1875 3.0625 C 14.414062 2.75 14.53125 2.394531 14.53125 2 C 14.53125 1.445312 14.3125 1 13.875 0.65625 C 13.445312 0.320312 12.765625 0.15625 11.828125 0.15625 L 8.875 0.15625 C 6.863281 0.15625 5.398438 -0.210938 4.484375 -0.953125 C 3.578125 -1.691406 3.125 -2.554688 3.125 -3.546875 C 3.125 -4.234375 3.304688 -4.882812 3.671875 -5.5 C 4.046875 -6.125 4.566406 -6.644531 5.234375 -7.0625 C 4.046875 -7.695312 3.191406 -8.441406 2.671875 -9.296875 C 2.160156 -10.160156 1.90625 -11.191406 1.90625 -12.390625 C 1.90625 -13.785156 2.257812 -14.988281 2.96875 -16 C 3.6875 -17.007812 4.671875 -17.785156 5.921875 -18.328125 C 7.179688 -18.878906 8.613281 -19.15625 10.21875 -19.15625 C 11.601562 -19.132812 12.804688 -19.234375 13.828125 -19.453125 C 14.859375 -19.671875 15.78125 -19.96875 16.59375 -20.34375 C 17.414062 -20.71875 18.203125 -21.125 18.953125 -21.5625 Z M 10.359375 -15.578125 C 9.484375 -15.578125 8.785156 -15.296875 8.265625 -14.734375 C 7.753906 -14.179688 7.5 -13.421875 7.5 -12.453125 C 7.5 -11.429688 7.757812 -10.644531 8.28125 -10.09375 C 8.8125 -9.550781 9.503906 -9.28125 10.359375 -9.28125 C 11.285156 -9.28125 11.988281 -9.550781 12.46875 -10.09375 C 12.945312 -10.644531 13.1875 -11.457031 13.1875 -12.53125 C 13.1875 -13.570312 12.945312 -14.335938 12.46875 -14.828125 C 12 -15.328125 11.296875 -15.578125 10.359375 -15.578125 Z M 10.359375 -15.578125 "/></g></g></g><g fill="#5e7aff" fill-opacity="1"><g transform="translate(154.074448, 41.25)"><g><path d="M 2.625 0 L 2.625 -3.703125 L 5.078125 -3.703125 L 5.078125 -14.90625 L 2.625 -14.90625 L 2.625 -18.578125 L 9.296875 -18.578125 L 10.3125 -14.40625 C 10.976562 -16 11.828125 -17.1875 12.859375 -17.96875 C 13.890625 -18.75 15.148438 -19.140625 16.640625 -19.140625 C 17.273438 -19.140625 17.835938 -19.085938 18.328125 -18.984375 C 18.816406 -18.890625 19.273438 -18.753906 19.703125 -18.578125 L 18.03125 -14.015625 C 17.6875 -14.109375 17.34375 -14.175781 17 -14.21875 C 16.664062 -14.269531 16.296875 -14.296875 15.890625 -14.296875 C 14.671875 -14.296875 13.601562 -13.800781 12.6875 -12.8125 C 11.78125 -11.820312 11.085938 -10.5625 10.609375 -9.03125 L 10.609375 -3.703125 L 14.28125 -3.703125 L 14.28125 0 Z M 15.203125 -10.8125 L 15.203125 -16.234375 L 16.03125 -18.578125 L 19.703125 -18.578125 L 18.671875 -10.8125 Z M 15.203125 -10.8125 "/></g></g></g><g fill="#5e7aff" fill-opacity="1"><g transform="translate(173.319701, 41.25)"><g><path d="M 7.25 -7.6875 C 7.375 -6.664062 7.632812 -5.84375 8.03125 -5.21875 C 8.4375 -4.59375 8.953125 -4.140625 9.578125 -3.859375 C 10.210938 -3.578125 10.921875 -3.4375 11.703125 -3.4375 C 12.554688 -3.4375 13.378906 -3.570312 14.171875 -3.84375 C 14.960938 -4.125 15.726562 -4.5 16.46875 -4.96875 L 18.6875 -1.953125 C 17.8125 -1.210938 16.753906 -0.601562 15.515625 -0.125 C 14.273438 0.351562 12.859375 0.59375 11.265625 0.59375 C 9.140625 0.59375 7.359375 0.171875 5.921875 -0.671875 C 4.492188 -1.515625 3.414062 -2.675781 2.6875 -4.15625 C 1.96875 -5.644531 1.609375 -7.351562 1.609375 -9.28125 C 1.609375 -11.101562 1.957031 -12.765625 2.65625 -14.265625 C 3.351562 -15.765625 4.375 -16.960938 5.71875 -17.859375 C 7.070312 -18.753906 8.722656 -19.203125 10.671875 -19.203125 C 12.441406 -19.203125 13.976562 -18.820312 15.28125 -18.0625 C 16.582031 -17.300781 17.59375 -16.207031 18.3125 -14.78125 C 19.03125 -13.363281 19.390625 -11.65625 19.390625 -9.65625 C 19.390625 -9.34375 19.378906 -9.003906 19.359375 -8.640625 C 19.347656 -8.285156 19.320312 -7.96875 19.28125 -7.6875 Z M 10.671875 -15.484375 C 9.679688 -15.484375 8.882812 -15.128906 8.28125 -14.421875 C 7.675781 -13.710938 7.304688 -12.570312 7.171875 -11 L 14 -11 C 13.988281 -12.351562 13.722656 -13.4375 13.203125 -14.25 C 12.691406 -15.070312 11.847656 -15.484375 10.671875 -15.484375 Z M 10.671875 -15.484375 "/></g></g></g><g fill="#5e7aff" fill-opacity="1"><g transform="translate(192.564955, 41.25)"><g><path d="M 14.28125 -26.546875 C 15.632812 -26.546875 16.828125 -26.4375 17.859375 -26.21875 C 18.898438 -26.007812 19.832031 -25.726562 20.65625 -25.375 L 19.125 -21.765625 C 18.488281 -22.015625 17.832031 -22.191406 17.15625 -22.296875 C 16.476562 -22.410156 15.804688 -22.46875 15.140625 -22.46875 C 14.046875 -22.46875 13.257812 -22.269531 12.78125 -21.875 C 12.3125 -21.476562 12.078125 -20.816406 12.078125 -19.890625 L 12.078125 -17.40625 L 18.125 -17.40625 L 17.515625 -13.578125 L 12.078125 -13.578125 L 12.078125 0 L 6.578125 0 L 6.578125 -13.578125 L 2.671875 -13.578125 L 2.671875 -17.40625 L 6.578125 -17.40625 L 6.578125 -20.109375 C 6.578125 -21.328125 6.867188 -22.421875 7.453125 -23.390625 C 8.035156 -24.359375 8.898438 -25.125 10.046875 -25.6875 C 11.191406 -26.257812 12.601562 -26.546875 14.28125 -26.546875 Z M 14.28125 -26.546875 "/></g></g></g><g fill="#5e7aff" fill-opacity="1"><g transform="translate(211.810208, 41.25)"><g><path d="M 12.140625 -25.96875 L 12.140625 -5.84375 C 12.140625 -5.09375 12.351562 -4.554688 12.78125 -4.234375 C 13.207031 -3.921875 13.796875 -3.765625 14.546875 -3.765625 C 15.023438 -3.765625 15.484375 -3.816406 15.921875 -3.921875 C 16.367188 -4.035156 16.785156 -4.171875 17.171875 -4.328125 L 18.5 -0.625 C 17.863281 -0.300781 17.101562 -0.0195312 16.21875 0.21875 C 15.332031 0.46875 14.300781 0.59375 13.125 0.59375 C 10.882812 0.59375 9.238281 -0.046875 8.1875 -1.328125 C 7.132812 -2.617188 6.609375 -4.351562 6.609375 -6.53125 L 6.609375 -22.1875 L 1.140625 -22.1875 L 1.140625 -25.96875 Z M 12.140625 -25.96875 "/></g></g></g><g fill="#5e7aff" fill-opacity="1"><g transform="translate(231.055462, 41.25)"><g><path d="M 7.25 -7.6875 C 7.375 -6.664062 7.632812 -5.84375 8.03125 -5.21875 C 8.4375 -4.59375 8.953125 -4.140625 9.578125 -3.859375 C 10.210938 -3.578125 10.921875 -3.4375 11.703125 -3.4375 C 12.554688 -3.4375 13.378906 -3.570312 14.171875 -3.84375 C 14.960938 -4.125 15.726562 -4.5 16.46875 -4.96875 L 18.6875 -1.953125 C 17.8125 -1.210938 16.753906 -0.601562 15.515625 -0.125 C 14.273438 0.351562 12.859375 0.59375 11.265625 0.59375 C 9.140625 0.59375 7.359375 0.171875 5.921875 -0.671875 C 4.492188 -1.515625 3.414062 -2.675781 2.6875 -4.15625 C 1.96875 -5.644531 1.609375 -7.351562 1.609375 -9.28125 C 1.609375 -11.101562 1.957031 -12.765625 2.65625 -14.265625 C 3.351562 -15.765625 4.375 -16.960938 5.71875 -17.859375 C 7.070312 -18.753906 8.722656 -19.203125 10.671875 -19.203125 C 12.441406 -19.203125 13.976562 -18.820312 15.28125 -18.0625 C 16.582031 -17.300781 17.59375 -16.207031 18.3125 -14.78125 C 19.03125 -13.363281 19.390625 -11.65625 19.390625 -9.65625 C 19.390625 -9.34375 19.378906 -9.003906 19.359375 -8.640625 C 19.347656 -8.285156 19.320312 -7.96875 19.28125 -7.6875 Z M 10.671875 -15.484375 C 9.679688 -15.484375 8.882812 -15.128906 8.28125 -14.421875 C 7.675781 -13.710938 7.304688 -12.570312 7.171875 -11 L 14 -11 C 13.988281 -12.351562 13.722656 -13.4375 13.203125 -14.25 C 12.691406 -15.070312 11.847656 -15.484375 10.671875 -15.484375 Z M 10.671875 -15.484375 "/></g></g></g><g fill="#5e7aff" fill-opacity="1"><g transform="translate(250.300715, 41.25)"><g><path d="M 12.296875 -3.765625 C 13.054688 -3.765625 13.769531 -3.910156 14.4375 -4.203125 C 15.113281 -4.503906 15.785156 -4.890625 16.453125 -5.359375 L 18.921875 -1.859375 C 18.097656 -1.160156 17.097656 -0.578125 15.921875 -0.109375 C 14.753906 0.359375 13.445312 0.59375 12 0.59375 C 10.007812 0.59375 8.296875 0.179688 6.859375 -0.640625 C 5.421875 -1.460938 4.316406 -2.601562 3.546875 -4.0625 C 2.773438 -5.53125 2.390625 -7.234375 2.390625 -9.171875 C 2.390625 -11.109375 2.785156 -12.832031 3.578125 -14.34375 C 4.367188 -15.851562 5.488281 -17.039062 6.9375 -17.90625 C 8.394531 -18.769531 10.117188 -19.203125 12.109375 -19.203125 C 13.523438 -19.203125 14.78125 -19.003906 15.875 -18.609375 C 16.976562 -18.222656 17.992188 -17.644531 18.921875 -16.875 L 16.515625 -13.546875 C 15.890625 -13.984375 15.222656 -14.320312 14.515625 -14.5625 C 13.816406 -14.8125 13.09375 -14.9375 12.34375 -14.9375 C 11.09375 -14.9375 10.082031 -14.492188 9.3125 -13.609375 C 8.550781 -12.734375 8.171875 -11.253906 8.171875 -9.171875 C 8.171875 -7.804688 8.347656 -6.726562 8.703125 -5.9375 C 9.066406 -5.15625 9.5625 -4.597656 10.1875 -4.265625 C 10.8125 -3.929688 11.515625 -3.765625 12.296875 -3.765625 Z M 12.296875 -3.765625 "/></g></g></g><g fill="#5e7aff" fill-opacity="1"><g transform="translate(269.545968, 41.25)"><g><path d="M 19.1875 -1.078125 C 18.457031 -0.617188 17.578125 -0.226562 16.546875 0.09375 C 15.523438 0.425781 14.375 0.59375 13.09375 0.59375 C 10.664062 0.59375 8.863281 -0.0234375 7.6875 -1.265625 C 6.507812 -2.503906 5.921875 -4.191406 5.921875 -6.328125 L 5.921875 -14.765625 L 2.015625 -14.765625 L 2.015625 -18.578125 L 5.921875 -18.578125 L 5.921875 -22.609375 L 11.4375 -23.28125 L 11.4375 -18.578125 L 17.4375 -18.578125 L 16.890625 -14.765625 L 11.4375 -14.765625 L 11.4375 -6.328125 C 11.4375 -5.410156 11.644531 -4.753906 12.0625 -4.359375 C 12.488281 -3.960938 13.164062 -3.765625 14.09375 -3.765625 C 14.738281 -3.765625 15.332031 -3.84375 15.875 -4 C 16.414062 -4.15625 16.90625 -4.359375 17.34375 -4.609375 Z M 19.1875 -1.078125 "/></g></g></g><g fill="#5e7aff" fill-opacity="1"><g transform="translate(288.791222, 41.25)"><g><path d="M 13.8125 -18.578125 L 13.8125 -3.78125 L 18.53125 -3.78125 L 18.53125 0 L 3.015625 0 L 3.015625 -3.78125 L 8.28125 -3.78125 L 8.28125 -14.8125 L 3.1875 -14.8125 L 3.1875 -18.578125 Z M 10.46875 -28.3125 C 11.425781 -28.3125 12.207031 -28.015625 12.8125 -27.421875 C 13.414062 -26.828125 13.71875 -26.085938 13.71875 -25.203125 C 13.71875 -24.316406 13.414062 -23.570312 12.8125 -22.96875 C 12.207031 -22.363281 11.425781 -22.0625 10.46875 -22.0625 C 9.5 -22.0625 8.707031 -22.363281 8.09375 -22.96875 C 7.476562 -23.570312 7.171875 -24.316406 7.171875 -25.203125 C 7.171875 -26.085938 7.476562 -26.828125 8.09375 -27.421875 C 8.707031 -28.015625 9.5 -28.3125 10.46875 -28.3125 Z M 10.46875 -28.3125 "/></g></g></g><g fill="#5e7aff" fill-opacity="1"><g transform="translate(308.036475, 41.25)"><g><path d="M 10.5 -19.203125 C 12.414062 -19.203125 14.039062 -18.789062 15.375 -17.96875 C 16.71875 -17.15625 17.742188 -16.007812 18.453125 -14.53125 C 19.171875 -13.050781 19.53125 -11.320312 19.53125 -9.34375 C 19.53125 -7.28125 19.171875 -5.503906 18.453125 -4.015625 C 17.734375 -2.523438 16.703125 -1.382812 15.359375 -0.59375 C 14.023438 0.195312 12.40625 0.59375 10.5 0.59375 C 8.613281 0.59375 6.992188 0.203125 5.640625 -0.578125 C 4.296875 -1.359375 3.265625 -2.488281 2.546875 -3.96875 C 1.828125 -5.445312 1.46875 -7.226562 1.46875 -9.3125 C 1.46875 -11.28125 1.828125 -13.003906 2.546875 -14.484375 C 3.265625 -15.972656 4.296875 -17.128906 5.640625 -17.953125 C 6.992188 -18.785156 8.613281 -19.203125 10.5 -19.203125 Z M 10.5 -15.125 C 9.363281 -15.125 8.523438 -14.660156 7.984375 -13.734375 C 7.441406 -12.804688 7.171875 -11.332031 7.171875 -9.3125 C 7.171875 -7.257812 7.441406 -5.769531 7.984375 -4.84375 C 8.523438 -3.925781 9.363281 -3.46875 10.5 -3.46875 C 11.632812 -3.46875 12.472656 -3.925781 13.015625 -4.84375 C 13.554688 -5.769531 13.828125 -7.269531 13.828125 -9.34375 C 13.828125 -11.351562 13.554688 -12.816406 13.015625 -13.734375 C 12.472656 -14.660156 11.632812 -15.125 10.5 -15.125 Z M 10.5 -15.125 "/></g></g></g><g fill="#5e7aff" fill-opacity="1"><g transform="translate(327.281729, 41.25)"><g><path d="M 2.453125 0 L 2.453125 -18.578125 L 7.28125 -18.578125 L 7.671875 -16.4375 C 8.492188 -17.363281 9.363281 -18.054688 10.28125 -18.515625 C 11.207031 -18.972656 12.257812 -19.203125 13.4375 -19.203125 C 15.019531 -19.203125 16.265625 -18.71875 17.171875 -17.75 C 18.085938 -16.78125 18.546875 -15.414062 18.546875 -13.65625 L 18.546875 0 L 13.015625 0 L 13.015625 -12.0625 C 13.015625 -12.8125 12.960938 -13.410156 12.859375 -13.859375 C 12.753906 -14.316406 12.570312 -14.640625 12.3125 -14.828125 C 12.050781 -15.023438 11.691406 -15.125 11.234375 -15.125 C 10.847656 -15.125 10.472656 -15.035156 10.109375 -14.859375 C 9.742188 -14.691406 9.382812 -14.453125 9.03125 -14.140625 C 8.675781 -13.828125 8.328125 -13.445312 7.984375 -13 L 7.984375 0 Z M 2.453125 0 "/></g></g></g><g fill="#5e7aff" fill-opacity="1"><g transform="translate(346.526982, 41.25)"><g><path d="M 9.90625 -3.359375 C 10.820312 -3.359375 11.5625 -3.503906 12.125 -3.796875 C 12.695312 -4.085938 12.984375 -4.523438 12.984375 -5.109375 C 12.984375 -5.503906 12.867188 -5.835938 12.640625 -6.109375 C 12.421875 -6.378906 12 -6.632812 11.375 -6.875 C 10.75 -7.125 9.816406 -7.414062 8.578125 -7.75 C 7.441406 -8.050781 6.4375 -8.4375 5.5625 -8.90625 C 4.695312 -9.375 4.019531 -9.972656 3.53125 -10.703125 C 3.050781 -11.441406 2.8125 -12.359375 2.8125 -13.453125 C 2.8125 -14.566406 3.117188 -15.550781 3.734375 -16.40625 C 4.359375 -17.269531 5.269531 -17.953125 6.46875 -18.453125 C 7.675781 -18.953125 9.148438 -19.203125 10.890625 -19.203125 C 12.546875 -19.203125 13.988281 -18.988281 15.21875 -18.5625 C 16.445312 -18.132812 17.507812 -17.59375 18.40625 -16.9375 L 16.203125 -13.6875 C 15.429688 -14.164062 14.601562 -14.546875 13.71875 -14.828125 C 12.832031 -15.117188 11.941406 -15.265625 11.046875 -15.265625 C 10.140625 -15.265625 9.46875 -15.144531 9.03125 -14.90625 C 8.59375 -14.664062 8.375 -14.304688 8.375 -13.828125 C 8.375 -13.515625 8.488281 -13.242188 8.71875 -13.015625 C 8.945312 -12.785156 9.375 -12.550781 10 -12.3125 C 10.632812 -12.070312 11.5625 -11.773438 12.78125 -11.421875 C 13.976562 -11.085938 15.019531 -10.695312 15.90625 -10.25 C 16.800781 -9.8125 17.492188 -9.222656 17.984375 -8.484375 C 18.472656 -7.742188 18.71875 -6.765625 18.71875 -5.546875 C 18.71875 -4.191406 18.316406 -3.054688 17.515625 -2.140625 C 16.710938 -1.222656 15.644531 -0.535156 14.3125 -0.078125 C 12.976562 0.367188 11.519531 0.59375 9.9375 0.59375 C 8.144531 0.59375 6.554688 0.335938 5.171875 -0.171875 C 3.796875 -0.679688 2.625 -1.359375 1.65625 -2.203125 L 4.4375 -5.3125 C 5.164062 -4.757812 5.988281 -4.296875 6.90625 -3.921875 C 7.820312 -3.546875 8.820312 -3.359375 9.90625 -3.359375 Z M 9.90625 -3.359375 "/></g></g></g></svg>